<?xml version="1.0" ?><svg height="60px" version="1.1" viewBox="0 0 60 60" width="60px" xmlns="http://www.w3.org/2000/svg" xmlns:xlink="http://www.w3.org/1999/xlink"><title/><desc/><defs/><g fill="none" fill-rule="evenodd" id="Page-1" stroke="none" stroke-width="1"><g id="012---Settings" transform="translate(1.000000, 1.000000)"><g fill-rule="nonzero" id="Icons"><path d="M58,29.005 C57.9846946,36.6805529 54.920601,44.0355874 49.4819139,49.4517695 C44.0432269,54.8679516 36.6755503,57.9015214 29,57.885 C28.33,57.885 27.66,57.865 27,57.805 C11.8148168,56.8242902 9.32587341e-15,44.221819 7.54951657e-15,29.005 C5.77315973e-15,13.788181 11.8148168,1.18570975 27,0.205 C27.66,0.145 28.33,0.125 29,0.125 C36.6755511,0.108475955 44.0432292,3.14204484 49.4819168,8.55822756 C54.9206045,13.9744103 57.9846973,21.3294463 58,29.005 Z" fill="#424242" id="Shape"/><ellipse cx="27" cy="29.005" fill="#9E9E9E" id="Oval" rx="27" ry="28.79999"/><path d="M55,29.005 C54.9517585,43.3249643 43.3200343,54.9030037 29,54.885 C28.16,54.885 27.33,54.845 26.5,54.765 C13.1870891,53.5408138 3.00007599,42.3740773 3.00007599,29.005 C3.00007599,15.6359227 13.1870891,4.46918623 26.5,3.245 C27.33,3.165 28.16,3.125 29,3.125 C43.3200433,3.10697426 54.9517805,14.6850265 55,29.005 Z" fill="#AD1457" id="Shape"/><ellipse cx="26.5" cy="29.005" fill="#E91E63" id="Oval" rx="23.5" ry="25.76001"/><path d="M24,24 C23.99201,25.1012429 23.1012429,25.99201 22,26 L16,26 C14.8967777,25.9967543 14.0032457,25.1032223 14,24 C14.0079309,22.8987323 14.8987323,22.0079309 16,22 L22,22 C23.1032314,22.0032238 23.9967762,22.8967686 24,24 Z" fill="#9E9E9E" id="Shape"/><path d="M44,24 C43.99201,25.1012429 43.1012429,25.99201 42,26 L36,26 C34.8967777,25.9967543 34.0032457,25.1032223 34,24 C34.0079309,22.8987323 34.8987323,22.0079309 36,22 L42,22 C43.1032314,22.0032238 43.9967762,22.8967686 44,24 Z" fill="#9E9E9E" id="Shape"/><path d="M34,34 C33.99201,35.1012429 33.1012429,35.99201 32,36 L26,36 C24.8967777,35.9967543 24.0032457,35.1032223 24,34 C24.0079309,32.8987323 24.8987323,32.0079309 26,32 L32,32 C33.1032314,32.0032238 33.9967762,32.8967686 34,34 Z" fill="#9E9E9E" id="Shape"/><path d="M21,24 C20.99201,25.1012429 20.1012429,25.99201 19,26 L16,26 C14.8967777,25.9967543 14.0032457,25.1032223 14,24 C14.0079309,22.8987323 14.8987323,22.0079309 16,22 L19,22 C20.1032314,22.0032238 20.9967762,22.8967686 21,24 Z" fill="#F5F5F5" id="Shape"/><path d="M41,24 C40.99201,25.1012429 40.1012429,25.99201 39,26 L36,26 C34.8967777,25.9967543 34.0032457,25.1032223 34,24 C34.0079309,22.8987323 34.8987323,22.0079309 36,22 L39,22 C40.1032314,22.0032238 40.9967762,22.8967686 41,24 Z" fill="#F5F5F5" id="Shape"/><path d="M31,34 C30.99201,35.1012429 30.1012429,35.99201 29,36 L26,36 C24.8967777,35.9967543 24.0032457,35.1032223 24,34 C24.0079309,32.8987323 24.8987323,32.0079309 26,32 L29,32 C30.1032314,32.0032238 30.9967762,32.8967686 31,34 Z" fill="#F5F5F5" id="Shape"/></g><g id="Outline" stroke="#000000" stroke-linecap="round" stroke-linejoin="round" stroke-width="2"><ellipse cx="29" cy="29" id="Oval" rx="29" ry="28.875"/><ellipse cx="29" cy="29" id="Oval" rx="25" ry="24.875"/><path d="M19,42 L19,26" id="Shape"/><path d="M19,22 L19,16" id="Shape"/><rect height="4" id="Rectangle-path" rx="2" width="10" x="14" y="22"/><path d="M39,42 L39,26" id="Shape"/><path d="M39,22 L39,16" id="Shape"/><rect height="4" id="Rectangle-path" rx="2" width="10" x="34" y="22"/><path d="M29,42 L29,36" id="Shape"/><path d="M29,32 L29,16" id="Shape"/><rect height="4" id="Rectangle-path" rx="2" width="10" x="24" y="32"/></g></g></g></svg>